<svg xmlns="http://www.w3.org/2000/svg" width="100" height="100" fill="none" viewBox="0 0 100 100">
  <path fill="url(#paint0_linear_47:437)" fill-opacity=".5" d="M0 50C0 22.386 22.386 0 50 0s50 22.386 50 50-22.386 50-50 50S0 77.614 0 50z"/>
  <g clip-path="url(#clip0_47:437)">
    <path fill="url(#paint1_linear_47:437)" d="M84.217 49.684a33.523 33.523 0 11-67.046 0 33.523 33.523 0 0167.046 0"/>
    <g filter="url(#filter0_i_47:437)">
      <path fill="url(#paint2_linear_47:437)" d="M84.217 49.684a33.523 33.523 0 11-67.046 0 33.523 33.523 0 0167.046 0"/>
    </g>
    <g filter="url(#filter1_d_47:437)">
      <path fill="url(#paint3_linear_47:437)" d="M38.961 72.945c0 2.212 5.25 1.86 11.733 1.86 6.478 0 11.733.352 11.733-1.86 0-2.665-5.255-4.404-11.733-4.404-6.482 0-11.733 1.739-11.733 4.404z"/>
    </g>
    <path fill="url(#paint4_linear_47:437)" d="M38.961 72.945c0 2.212 5.25 1.86 11.733 1.86 6.478 0 11.733.352 11.733-1.86 0-2.665-5.255-4.404-11.733-4.404-6.482 0-11.733 1.739-11.733 4.404z"/>
    <path fill="url(#paint5_linear_47:437)" d="M32.257 57.357c0-3.315 2.254-5.996 5.028-5.996 2.779 0 5.029 2.681 5.029 5.996 0 1.379-.39 2.653-1.056 3.662a2.208 2.208 0 01-1.333.922c-.628.151-1.563.314-2.64.314-1.077 0-2.015-.163-2.64-.314a2.195 2.195 0 01-1.332-.922 6.654 6.654 0 01-1.056-3.662zm26.818 0c0-3.315 2.25-5.996 5.028-5.996 2.775 0 5.029 2.681 5.029 5.996 0 1.379-.394 2.653-1.056 3.662-.31.466-.787.796-1.333.922-.864.207-1.75.313-2.64.314-1.076 0-2.01-.163-2.64-.314a2.22 2.22 0 01-1.336-.922 6.687 6.687 0 01-1.052-3.662z"/>
    <g filter="url(#filter2_i_47:437)">
      <path fill="url(#paint6_linear_47:437)" d="M32.257 57.357c0-3.315 2.254-5.996 5.028-5.996 2.779 0 5.029 2.681 5.029 5.996 0 1.379-.39 2.653-1.056 3.662a2.208 2.208 0 01-1.333.922c-.628.151-1.563.314-2.64.314-1.077 0-2.015-.163-2.64-.314a2.195 2.195 0 01-1.332-.922 6.654 6.654 0 01-1.056-3.662zm26.818 0c0-3.315 2.25-5.996 5.028-5.996 2.775 0 5.029 2.681 5.029 5.996 0 1.379-.394 2.653-1.056 3.662-.31.466-.787.796-1.333.922-.864.207-1.75.313-2.64.314-1.076 0-2.01-.163-2.64-.314a2.22 2.22 0 01-1.336-.922 6.687 6.687 0 01-1.052-3.662z"/>
    </g>
    <path fill="#4F4F67" d="M37.99 55.27c.02.098.03.198.029.297 0 .843-.738 1.534-1.651 1.534-.91 0-1.647-.691-1.647-1.533 0-.348.125-.67.335-.926a68.69 68.69 0 002.933.628zm24.831 1.831c-.884 0-1.605-.64-1.647-1.458a58.901 58.901 0 003.21-.57c.058.16.087.329.084.499 0 .838-.733 1.53-1.647 1.53z"/>
    <g filter="url(#filter3_d_47:437)">
      <path fill="url(#paint7_linear_47:437)" d="M54.885 48.008c0-1.869.683-2.514 1.864-2.514 1.174 0 1.735 1.157 2.12 4.467 4.727 0 12.73-2.238 13.502-2.238.746 0 1.16.357 1.328 1.12.147.661-.096 1.29-.926 1.675-2.602 1.203-10.237 3.918-16.694 3.918-.704 0-1.194-.36-1.194-1.261v-5.167zm-12.366 1.953c.386-3.31.947-4.467 2.12-4.467 1.182 0 1.865.645 1.865 2.514v5.167c0 .9-.49 1.261-1.194 1.261-6.458 0-14.092-2.715-16.695-3.918-.83-.385-1.072-1.014-.926-1.676.172-.762.587-1.119 1.329-1.119.77 0 8.774 2.238 13.501 2.238z"/>
    </g>
    <path fill="url(#paint8_linear_47:437)" d="M54.885 48.008c0-1.869.683-2.514 1.864-2.514 1.174 0 1.735 1.157 2.12 4.467 4.727 0 12.73-2.238 13.502-2.238.746 0 1.16.357 1.328 1.12.147.661-.096 1.29-.926 1.675-2.602 1.203-10.237 3.918-16.694 3.918-.704 0-1.194-.36-1.194-1.261v-5.167zm-12.366 1.953c.386-3.31.947-4.467 2.12-4.467 1.182 0 1.865.645 1.865 2.514v5.167c0 .9-.49 1.261-1.194 1.261-6.458 0-14.092-2.715-16.695-3.918-.83-.385-1.072-1.014-.926-1.676.172-.762.587-1.119 1.329-1.119.77 0 8.774 2.238 13.501 2.238z"/>
  </g>
  <defs>
    <linearGradient id="paint0_linear_47:437" x1="50" x2="50" y1="0" y2="67.194" gradientUnits="userSpaceOnUse">
      <stop stop-color="#E04300"/>
      <stop offset="1" stop-color="#FFA320"/>
    </linearGradient>
    <linearGradient id="paint1_linear_47:437" x1="50.694" x2="50.694" y1="16.162" y2="61.212" gradientUnits="userSpaceOnUse">
      <stop stop-color="#E04300"/>
      <stop offset="1" stop-color="#FFA320"/>
    </linearGradient>
    <linearGradient id="paint2_linear_47:437" x1="50.694" x2="50.694" y1="16.162" y2="61.212" gradientUnits="userSpaceOnUse">
      <stop stop-color="#E04300"/>
      <stop offset="1" stop-color="#FFA320"/>
    </linearGradient>
    <linearGradient id="paint3_linear_47:437" x1="50.694" x2="50.694" y1="68.541" y2="72.764" gradientUnits="userSpaceOnUse">
      <stop stop-color="#E04300"/>
      <stop offset="1" stop-color="#FFA320"/>
    </linearGradient>
    <linearGradient id="paint4_linear_47:437" x1="50.694" x2="50.694" y1="69.39" y2="74.826" gradientUnits="userSpaceOnUse">
      <stop stop-color="#3D0D00"/>
      <stop offset="1" stop-color="#661C04"/>
    </linearGradient>
    <linearGradient id="paint5_linear_47:437" x1="50.694" x2="50.694" y1="51.361" y2="62.255" gradientUnits="userSpaceOnUse">
      <stop stop-color="#B8B8B8"/>
      <stop offset=".872" stop-color="#3B426A"/>
    </linearGradient>
    <linearGradient id="paint6_linear_47:437" x1="50.694" x2="50.694" y1="51.361" y2="58.681" gradientUnits="userSpaceOnUse">
      <stop stop-color="#E04300"/>
      <stop offset="1" stop-color="#FFA320"/>
    </linearGradient>
    <linearGradient id="paint7_linear_47:437" x1="50.694" x2="50.694" y1="45.494" y2="51.503" gradientUnits="userSpaceOnUse">
      <stop stop-color="#E04300"/>
      <stop offset="1" stop-color="#FFA320"/>
    </linearGradient>
    <linearGradient id="paint8_linear_47:437" x1="65.845" x2="65.845" y1="55.271" y2="45.494" gradientUnits="userSpaceOnUse">
      <stop stop-color="#9A2F00"/>
      <stop offset="1" stop-color="#D44800"/>
    </linearGradient>
    <filter id="filter0_i_47:437" width="67.045" height="68.045" x="17.172" y="15.162" color-interpolation-filters="sRGB" filterUnits="userSpaceOnUse">
      <feFlood flood-opacity="0" result="BackgroundImageFix"/>
      <feBlend in="SourceGraphic" in2="BackgroundImageFix" result="shape"/>
      <feColorMatrix in="SourceAlpha" result="hardAlpha" values="0 0 0 0 0 0 0 0 0 0 0 0 0 0 0 0 0 0 127 0"/>
      <feOffset dy="-1"/>
      <feGaussianBlur stdDeviation="1"/>
      <feComposite in2="hardAlpha" k2="-1" k3="1" operator="arithmetic"/>
      <feColorMatrix values="0 0 0 0 0.731459 0 0 0 0 0.051035 0 0 0 0 0.0184398 0 0 0 0.353639 0"/>
      <feBlend in2="shape" result="effect1_innerShadow_47:437"/>
    </filter>
    <filter id="filter1_d_47:437" width="25.466" height="8.285" x="37.961" y="68.541" color-interpolation-filters="sRGB" filterUnits="userSpaceOnUse">
      <feFlood flood-opacity="0" result="BackgroundImageFix"/>
      <feColorMatrix in="SourceAlpha" result="hardAlpha" values="0 0 0 0 0 0 0 0 0 0 0 0 0 0 0 0 0 0 127 0"/>
      <feOffset dy="1"/>
      <feGaussianBlur stdDeviation=".5"/>
      <feColorMatrix values="0 0 0 0 1 0 0 0 0 0.509681 0 0 0 0 0 0 0 0 0.371207 0"/>
      <feBlend in2="BackgroundImageFix" result="effect1_dropShadow_47:437"/>
      <feBlend in="SourceGraphic" in2="effect1_dropShadow_47:437" result="shape"/>
    </filter>
    <filter id="filter2_i_47:437" width="36.875" height="10.895" x="32.257" y="51.361" color-interpolation-filters="sRGB" filterUnits="userSpaceOnUse">
      <feFlood flood-opacity="0" result="BackgroundImageFix"/>
      <feBlend in="SourceGraphic" in2="BackgroundImageFix" result="shape"/>
      <feColorMatrix in="SourceAlpha" result="hardAlpha" values="0 0 0 0 0 0 0 0 0 0 0 0 0 0 0 0 0 0 127 0"/>
      <feOffset/>
      <feGaussianBlur stdDeviation=".5"/>
      <feComposite in2="hardAlpha" k2="-1" k3="1" operator="arithmetic"/>
      <feColorMatrix values="0 0 0 0 0.0387428 0 0 0 0 0.0406183 0 0 0 0 0.0875053 0 0 0 1 0"/>
      <feBlend in2="shape" result="effect1_innerShadow_47:437"/>
    </filter>
    <filter id="filter3_d_47:437" width="46.29" height="9.642" x="27.549" y="45.494" color-interpolation-filters="sRGB" filterUnits="userSpaceOnUse">
      <feFlood flood-opacity="0" result="BackgroundImageFix"/>
      <feColorMatrix in="SourceAlpha" result="hardAlpha" values="0 0 0 0 0 0 0 0 0 0 0 0 0 0 0 0 0 0 127 0"/>
      <feOffset dy=".6"/>
      <feGaussianBlur stdDeviation=".05"/>
      <feColorMatrix values="0 0 0 0 0.565875 0 0 0 0 0.151272 0 0 0 0 0 0 0 0 0.15024 0"/>
      <feBlend in2="BackgroundImageFix" result="effect1_dropShadow_47:437"/>
      <feBlend in="SourceGraphic" in2="effect1_dropShadow_47:437" result="shape"/>
    </filter>
    <clipPath id="clip0_47:437">
      <path fill="#fff" d="M0 0h67.046v67.046H0z" transform="translate(17.172 16.162)"/>
    </clipPath>
  </defs>
</svg>
