<svg xmlns="http://www.w3.org/2000/svg" width="100" height="100" fill="none" viewBox="0 0 100 100">
  <path fill="url(#paint0_linear_47:436)" fill-opacity=".5" d="M0 50C0 22.386 22.386 0 50 0s50 22.386 50 50-22.386 50-50 50S0 77.614 0 50z"/>
  <g clip-path="url(#clip0_47:436)">
    <path fill="url(#paint1_linear_47:436)" d="M84.222 49.68c0 18.516-15.007 33.523-33.522 33.523-18.516 0-33.523-15.007-33.523-33.523 0-18.515 15.007-33.522 33.523-33.522 18.515 0 33.522 15.007 33.522 33.522z"/>
    <path fill="url(#paint2_radial_47:436)" d="M84.222 49.68c0 18.516-15.007 33.523-33.522 33.523-18.516 0-33.523-15.007-33.523-33.523 0-18.515 15.007-33.522 33.523-33.522 18.515 0 33.522 15.007 33.522 33.522z"/>
    <path fill="url(#paint3_radial_47:436)" d="M84.222 49.68c0 18.516-15.007 33.523-33.522 33.523-18.516 0-33.523-15.007-33.523-33.523 0-18.515 15.007-33.522 33.523-33.522 18.515 0 33.522 15.007 33.522 33.522z"/>
    <path fill="url(#paint4_radial_47:436)" d="M84.222 49.68c0 18.516-15.007 33.523-33.522 33.523-18.516 0-33.523-15.007-33.523-33.523 0-18.515 15.007-33.522 33.523-33.522 18.515 0 33.522 15.007 33.522 33.522z"/>
    <path fill="url(#paint5_radial_47:436)" d="M84.222 49.68c0 18.516-15.007 33.523-33.522 33.523-18.516 0-33.523-15.007-33.523-33.523 0-18.515 15.007-33.522 33.523-33.522 18.515 0 33.522 15.007 33.522 33.522z"/>
    <path fill="url(#paint6_radial_47:436)" d="M84.222 49.68c0 18.516-15.007 33.523-33.522 33.523-18.516 0-33.523-15.007-33.523-33.523 0-18.515 15.007-33.522 33.523-33.522 18.515 0 33.522 15.007 33.522 33.522z"/>
    <path fill="url(#paint7_radial_47:436)" d="M84.222 49.68c0 18.516-15.007 33.523-33.522 33.523-18.516 0-33.523-15.007-33.523-33.523 0-18.515 15.007-33.522 33.523-33.522 18.515 0 33.522 15.007 33.522 33.522z"/>
    <path fill="url(#paint8_linear_47:436)" d="M57.778 40.83c-.425-1.136-13.734-1.136-14.158 0-.493 1.326 2.535 3.128 7.081 3.076 4.541.052 7.564-1.755 7.077-3.075z"/>
    <path fill="url(#paint9_radial_47:436)" d="M42.504 33.34c.005 2.819-1.796 3.646-4.468 3.987-2.645.398-4.426-.77-4.467-3.986-.037-2.703 1.419-6.003 4.467-6.066 3.044.063 4.463 3.363 4.468 6.066z"/>
    <path fill="#4E506A" d="M37.586 29.218c.44.514.361 1.404-.179 1.996-.539.587-1.33.65-1.77.136-.44-.513-.361-1.404.178-1.99.54-.592 1.33-.65 1.77-.142z"/>
    <path fill="url(#paint10_radial_47:436)" d="M58.9 33.34c-.006 2.819 1.796 3.646 4.467 3.987 2.645.398 4.426-.77 4.468-3.986.037-2.703-1.42-6.003-4.468-6.066-3.048.063-4.468 3.363-4.468 6.066z"/>
    <path fill="#4E506A" d="M63.388 29.02c.356.576.141 1.445-.482 1.943-.623.497-1.414.44-1.77-.137-.357-.575-.142-1.445.481-1.943.619-.497 1.415-.44 1.77.137z"/>
    <path fill="url(#paint11_radial_47:436)" d="M31.316 24.855c-.875.739-.168 2.253 1.309 1.56 2.357-1.104 7.412-2.466 11.854-1.968 1.178.13 1.56-.043 1.299-1.498-.257-1.436-1.613-2.373-4.987-1.96-5.227.64-8.6 3.128-9.476 3.866z"/>
    <path fill="url(#paint12_radial_47:436)" d="M60.601 20.985c-3.373-.414-4.73.528-4.986 1.958-.262 1.457.12 1.63 1.299 1.498 4.441-.497 9.49.865 11.853 1.97 1.477.691 2.185-.822 1.31-1.561-.875-.734-4.248-3.222-9.476-3.866z"/>
    <g>
      <path fill="url(#paint13_linear_47:436)" d="M57.752 51.855C49.01 49.142 45.94 55.15 45.94 55.15s.885-6.687-7.858-9.4c-8.406-2.61-13.503 5.123-13.896 9.986-.843 10.468 8.245 22.347 11.644 26.394a3.003 3.003 0 003.106.962c5.102-1.407 19.333-6.05 24.587-15.147 2.436-4.22 2.63-13.48-5.772-16.089z"/>
      <path fill="url(#paint14_radial_47:436)" d="M57.752 51.855C49.01 49.142 45.94 55.15 45.94 55.15s.885-6.687-7.858-9.4c-8.406-2.61-13.503 5.123-13.896 9.986-.843 10.468 8.245 22.347 11.644 26.394a3.003 3.003 0 003.106.962c5.102-1.407 19.333-6.05 24.587-15.147 2.436-4.22 2.63-13.48-5.772-16.089z"/>
      <path fill="url(#paint15_radial_47:436)" d="M57.752 51.855C49.01 49.142 45.94 55.15 45.94 55.15s.885-6.687-7.858-9.4c-8.406-2.61-13.503 5.123-13.896 9.986-.843 10.468 8.245 22.347 11.644 26.394a3.003 3.003 0 003.106.962c5.102-1.407 19.333-6.05 24.587-15.147 2.436-4.22 2.63-13.48-5.772-16.089z"/>
      <path fill="url(#paint16_radial_47:436)" d="M57.752 51.855C49.01 49.142 45.94 55.15 45.94 55.15s.885-6.687-7.858-9.4c-8.406-2.61-13.503 5.123-13.896 9.986-.843 10.468 8.245 22.347 11.644 26.394a3.003 3.003 0 003.106.962c5.102-1.407 19.333-6.05 24.587-15.147 2.436-4.22 2.63-13.48-5.772-16.089z"/>
      <path fill="url(#paint17_radial_47:436)" d="M57.752 51.855C49.01 49.142 45.94 55.15 45.94 55.15s.885-6.687-7.858-9.4c-8.406-2.61-13.503 5.123-13.896 9.986-.843 10.468 8.245 22.347 11.644 26.394a3.003 3.003 0 003.106.962c5.102-1.407 19.333-6.05 24.587-15.147 2.436-4.22 2.63-13.48-5.772-16.089z"/>
      <path fill="url(#paint18_radial_47:436)" d="M57.752 51.855C49.01 49.142 45.94 55.15 45.94 55.15s.885-6.687-7.858-9.4c-8.406-2.61-13.503 5.123-13.896 9.986-.843 10.468 8.245 22.347 11.644 26.394a3.003 3.003 0 003.106.962c5.102-1.407 19.333-6.05 24.587-15.147 2.436-4.22 2.63-13.48-5.772-16.089z"/>
      <path fill="url(#paint19_radial_47:436)" d="M57.752 51.855C49.01 49.142 45.94 55.15 45.94 55.15s.885-6.687-7.858-9.4c-8.406-2.61-13.503 5.123-13.896 9.986-.843 10.468 8.245 22.347 11.644 26.394a3.003 3.003 0 003.106.962c5.102-1.407 19.333-6.05 24.587-15.147 2.436-4.22 2.63-13.48-5.772-16.089z"/>
      <path fill="url(#paint20_radial_47:436)" fill-opacity=".5" d="M57.752 51.855C49.01 49.142 45.94 55.15 45.94 55.15s.885-6.687-7.858-9.4c-8.406-2.61-13.503 5.123-13.896 9.986-.843 10.468 8.245 22.347 11.644 26.394a3.003 3.003 0 003.106.962c5.102-1.407 19.333-6.05 24.587-15.147 2.436-4.22 2.63-13.48-5.772-16.089z"/>
    </g>
    <g>
      <mask id="a" width="68" height="68" x="17" y="16" maskUnits="userSpaceOnUse" style="mask-type:alpha">
        <path fill="#fff" d="M84.222 49.68c0 18.516-15.006 33.523-33.522 33.523S17.176 68.196 17.176 49.68c0-18.515 15.007-33.522 33.523-33.522 18.516 0 33.522 15.007 33.522 33.522z"/>
      </mask>
      <g mask="url(#a)">
        <path fill="url(#paint21_radial_47:436)" d="M22.715 48.28c-2.19-2.133-6.044-3.107-6.485 1.832-.345 3.86 1.464 10.316 6.047 14.066 11.524 9.429 22.497 4.005 22.827-2.576.26-5.19-5.774-4.591-7.691-4.486a.13.13 0 01-.073-.241c.612-.397 1.2-.831 1.76-1.3 1.503-1.267.733-3.467-1.367-2.833-.32.094-5.432 1.624-8.675.398-3.677-1.388-4.116-2.687-6.343-4.86z"/>
        <path fill="url(#paint22_radial_47:436)" d="M76.933 49.012c1.304-2.524 3.377-1.639 4.542-1.25 1.717.572 2.739 1.638 2.739 4.31 0 6.332-1.048 12.204-6.333 18.102-9.68 10.795-26.05 9.365-27.442 2.556-1.153-5.647 4.867-6.212 6.831-6.474.136-.016.157-.226.036-.278a17.2 17.2 0 01-2.01-1.079c-2.029-1.267-1.487-3.743.895-3.378 2.535.377 5.673 1.089 8.375.822 7.826-.786 9.303-7.401 12.367-13.33z"/>
      </g>
    </g>
  </g>
  <defs>
    <radialGradient id="paint2_radial_47:436" cx="0" cy="0" r="1" gradientTransform="translate(50.7 49.68) scale(33.5227)" gradientUnits="userSpaceOnUse">
      <stop stop-color="#F08423" stop-opacity="0"/>
      <stop offset="1" stop-color="#F08423" stop-opacity=".34"/>
    </radialGradient>
    <radialGradient id="paint3_radial_47:436" cx="0" cy="0" r="1" gradientTransform="matrix(-38.4921 0 0 -32.2861 -15.973 -8.333)" gradientUnits="userSpaceOnUse">
      <stop stop-color="#FFE874"/>
      <stop offset="1" stop-color="#FFE368" stop-opacity="0"/>
    </radialGradient>
    <radialGradient id="paint4_radial_47:436" cx="0" cy="0" r="1" gradientTransform="rotate(24.148 -95.925 51.868) scale(6.75617 5.22584)" gradientUnits="userSpaceOnUse">
      <stop stop-color="#F28A2D" stop-opacity=".5"/>
      <stop offset="1" stop-color="#F28A2D" stop-opacity="0"/>
    </radialGradient>
    <radialGradient id="paint5_radial_47:436" cx="0" cy="0" r="1" gradientTransform="matrix(14.89348 -11.73812 4.73188 6.00387 69.006 2.006)" gradientUnits="userSpaceOnUse">
      <stop stop-color="#F28A2D" stop-opacity=".5"/>
      <stop offset="1" stop-color="#F28A2D" stop-opacity="0"/>
    </radialGradient>
    <radialGradient id="paint6_radial_47:436" cx="0" cy="0" r="1" gradientTransform="matrix(7.08536 -1.29476 .25748 1.409 38.486 14.041)" gradientUnits="userSpaceOnUse">
      <stop stop-color="#D45F00" stop-opacity=".25"/>
      <stop offset="1" stop-color="#D45F00" stop-opacity="0"/>
    </radialGradient>
    <radialGradient id="paint7_radial_47:436" cx="0" cy="0" r="1" gradientTransform="matrix(7.93508 1.66466 -.33104 1.57797 61.473 27.156)" gradientUnits="userSpaceOnUse">
      <stop stop-color="#D45F00" stop-opacity=".25"/>
      <stop offset="1" stop-color="#D45F00" stop-opacity="0"/>
    </radialGradient>
    <radialGradient id="paint9_radial_47:436" cx="0" cy="0" r="1" gradientTransform="matrix(0 -6.87847 8.83229 0 35.01 -1.89)" gradientUnits="userSpaceOnUse">
      <stop stop-color="#3B446B"/>
      <stop offset=".688" stop-color="#202340"/>
    </radialGradient>
    <radialGradient id="paint10_radial_47:436" cx="0" cy="0" r="1" gradientTransform="matrix(0 -6.87847 8.83228 0 35.004 -24.134)" gradientUnits="userSpaceOnUse">
      <stop stop-color="#3B446B"/>
      <stop offset=".688" stop-color="#202340"/>
    </radialGradient>
    <radialGradient id="paint11_radial_47:436" cx="0" cy="0" r="1" gradientTransform="rotate(-95.613 8.299 -18.37) scale(4.32251 3.08848)" gradientUnits="userSpaceOnUse">
      <stop stop-color="#E38200"/>
      <stop offset="1" stop-color="#CD6700"/>
    </radialGradient>
    <radialGradient id="paint12_radial_47:436" cx="0" cy="0" r="1" gradientTransform="matrix(.3388 -4.59748 4.1078 .30272 34.72 -21.443)" gradientUnits="userSpaceOnUse">
      <stop stop-color="#E38200"/>
      <stop offset="1" stop-color="#CD6700"/>
    </radialGradient>
    <radialGradient id="paint14_radial_47:436" cx="0" cy="0" r="1" gradientTransform="matrix(10.32573 4.12233 -4.0454 10.13302 34.71 71.977)" gradientUnits="userSpaceOnUse">
      <stop stop-color="#FF7091" stop-opacity=".7"/>
      <stop offset="1" stop-color="#FE6D8E" stop-opacity="0"/>
    </radialGradient>
    <radialGradient id="paint15_radial_47:436" cx="0" cy="0" r="1" gradientTransform="matrix(10.32573 4.12233 -4.0454 10.13302 19.765 60.175)" gradientUnits="userSpaceOnUse">
      <stop stop-color="#FF7091" stop-opacity=".7"/>
      <stop offset="1" stop-color="#FE6D8E" stop-opacity="0"/>
    </radialGradient>
    <radialGradient id="paint16_radial_47:436" cx="0" cy="0" r="1" gradientTransform="rotate(100.83 -31.565 -10.122) scale(10.1405 12.1327)" gradientUnits="userSpaceOnUse">
      <stop stop-color="#9C0600" stop-opacity=".999"/>
      <stop offset=".267" stop-color="#9C0600" stop-opacity=".94"/>
      <stop offset="1" stop-color="#9C0600" stop-opacity="0"/>
    </radialGradient>
    <radialGradient id="paint17_radial_47:436" cx="0" cy="0" r="1" gradientTransform="rotate(32.453 -148.02 89.879) scale(5.81941 7.01784)" gradientUnits="userSpaceOnUse">
      <stop stop-color="#C71C08" stop-opacity=".75"/>
      <stop offset=".531" stop-color="#C71C08" stop-opacity=".704"/>
      <stop offset="1" stop-color="#C71C08" stop-opacity="0"/>
    </radialGradient>
    <radialGradient id="paint18_radial_47:436" cx="0" cy="0" r="1" gradientTransform="rotate(-21.517 176.738 -76.649) scale(5.0019 6.32794)" gradientUnits="userSpaceOnUse">
      <stop stop-color="#9C0600" stop-opacity=".5"/>
      <stop offset=".316" stop-color="#9C0600" stop-opacity=".473"/>
      <stop offset="1" stop-color="#9C0600" stop-opacity="0"/>
    </radialGradient>
    <radialGradient id="paint19_radial_47:436" cx="0" cy="0" r="1" gradientTransform="matrix(5.52788 4.01491 -4.14438 5.70614 13.388 89.322)" gradientUnits="userSpaceOnUse">
      <stop stop-color="#9C0600" stop-opacity=".999"/>
      <stop offset=".457" stop-color="#9C0600" stop-opacity=".934"/>
      <stop offset=".592" stop-color="#9C0600" stop-opacity=".803"/>
      <stop offset="1" stop-color="#9C0600" stop-opacity="0"/>
    </radialGradient>
    <radialGradient id="paint20_radial_47:436" cx="0" cy="0" r="1" gradientTransform="matrix(-7.94994 19.03853 -19.28639 -8.05344 -39.499 18.692)" gradientUnits="userSpaceOnUse">
      <stop stop-color="#C71C08" stop-opacity="0"/>
      <stop offset="1" stop-color="#C71C08"/>
    </radialGradient>
    <radialGradient id="paint21_radial_47:436" cx="0" cy="0" r="1" gradientTransform="matrix(22.45944 21.09215 -17.3023 18.42392 2.295 41.294)" gradientUnits="userSpaceOnUse">
      <stop stop-color="#EDA83A"/>
      <stop offset="1" stop-color="#FFDC5E"/>
    </radialGradient>
    <radialGradient id="paint22_radial_47:436" cx="0" cy="0" r="1" gradientTransform="rotate(131.418 -32.563 9.957) scale(34.0613 30.6687)" gradientUnits="userSpaceOnUse">
      <stop stop-color="#F4B248"/>
      <stop offset="1" stop-color="#FFDD5F"/>
    </radialGradient>
    <linearGradient id="paint0_linear_47:436" x1="50" x2="50" y1="10.25" y2="100" gradientUnits="userSpaceOnUse">
      <stop stop-color="#FEEA70"/>
      <stop offset="1" stop-color="#F69B30"/>
    </linearGradient>
    <linearGradient id="paint1_linear_47:436" x1="50.7" x2="50.7" y1="79.874" y2="21.13" gradientUnits="userSpaceOnUse">
      <stop stop-color="#F28A2D"/>
      <stop offset="1" stop-color="#FDE86F"/>
    </linearGradient>
    <linearGradient id="paint8_linear_47:436" x1="50.696" x2="50.696" y1="38.405" y2="44.374" gradientUnits="userSpaceOnUse">
      <stop stop-color="#482314"/>
      <stop offset="1" stop-color="#9A4111"/>
    </linearGradient>
    <linearGradient id="paint13_linear_47:436" x1="45.674" x2="37.168" y1="57.124" y2="84.431" gradientUnits="userSpaceOnUse">
      <stop stop-color="#F34462"/>
      <stop offset="1" stop-color="#CC0820"/>
    </linearGradient>
    <clipPath id="clip0_47:436">
      <path fill="#fff" d="M0 0h67.046v67.046H0z" transform="translate(17.172 16.162)"/>
    </clipPath>
  </defs>
</svg>
