<svg xmlns="http://www.w3.org/2000/svg" width="100" height="100" fill="none" viewBox="0 0 100 100">
  <path fill="url(#paint0_linear_47:438)" fill-opacity=".5" d="M0 50C0 22.386 22.386 0 50 0s50 22.386 50 50-22.386 50-50 50S0 77.614 0 50z"/>
  <g clip-path="url(#clip0_47:438)">
    <path fill="url(#paint1_linear_47:438)" d="M84.217 49.684a33.523 33.523 0 11-67.046 0 33.523 33.523 0 0167.046 0"/>
    <g filter="url(#filter0_i_47:438)">
      <path fill="url(#paint2_linear_47:438)" d="M84.217 49.684a33.523 33.523 0 11-67.046 0 33.523 33.523 0 0167.046 0"/>
    </g>
    <path fill="url(#paint3_linear_47:438)" d="M29.743 49.718c0 8.443 4.215 25.108 20.951 25.108 16.732 0 20.952-16.665 20.952-25.108 0-.666-6.746-4.224-20.952-4.224-14.205 0-20.951 3.558-20.951 4.224z"/>
    <path fill="url(#paint4_linear_47:438)" d="M36.2 68.54c3.369 4.17 7.99 6.286 14.536 6.286 6.55 0 11.126-2.116 14.495-6.285-2.31-2.464-6.7-6.286-14.495-6.286-7.794 0-12.223 3.822-14.536 6.286z"/>
    <path fill="#2A3755" d="M43.206 33.526c1.102.788 2.104 1.907 1.718 3.302-.297 1.065-.813 1.547-1.768 1.555-3.269.046-7.157 1.069-10.501 2.565-.273.121-.826.368-1.391.356-.52-.013-1.052-.243-1.37-.993-.281-.658-.306-1.626 1.156-2.506 2.284-1.383 5.267-2.011 8-2.531a29.655 29.655 0 00-5.511-3.218c-1.79-.813-1.592-1.915-1.354-2.514.533-1.329 2.552-.822 4.518.108a37.713 37.713 0 016.503 3.877zm14.989 0a37.515 37.515 0 016.495-3.876c1.97-.93 3.98-1.437 4.517-.108.239.599.436 1.7-1.353 2.514-1.945.87-3.79 1.95-5.502 3.218 2.724.515 5.711 1.148 7.99 2.53 1.463.88 1.434 1.845 1.157 2.507-.322.754-.85.98-1.37.993-.566.012-1.119-.235-1.391-.356-3.34-1.496-7.228-2.515-10.493-2.565-.955-.008-1.47-.49-1.768-1.55-.381-1.396.616-2.514 1.718-3.302v-.005z"/>
  </g>
  <defs>
    <linearGradient id="paint0_linear_47:438" x1="50" x2="50" y1="10.25" y2="100" gradientUnits="userSpaceOnUse">
      <stop stop-color="#FEEA70"/>
      <stop offset="1" stop-color="#F69B30"/>
    </linearGradient>
    <linearGradient id="paint1_linear_47:438" x1="50.694" x2="50.694" y1="23.034" y2="83.207" gradientUnits="userSpaceOnUse">
      <stop stop-color="#FEEA70"/>
      <stop offset="1" stop-color="#F69B30"/>
    </linearGradient>
    <linearGradient id="paint2_linear_47:438" x1="50.694" x2="50.694" y1="23.034" y2="83.207" gradientUnits="userSpaceOnUse">
      <stop stop-color="#FEEA70"/>
      <stop offset="1" stop-color="#F69B30"/>
    </linearGradient>
    <linearGradient id="paint3_linear_47:438" x1="50.694" x2="50.694" y1="45.494" y2="74.826" gradientUnits="userSpaceOnUse">
      <stop stop-color="#472315"/>
      <stop offset="1" stop-color="#8B3A0E"/>
    </linearGradient>
    <linearGradient id="paint4_linear_47:438" x1="50.715" x2="50.715" y1="62.255" y2="72.551" gradientUnits="userSpaceOnUse">
      <stop stop-color="#FC607C"/>
      <stop offset="1" stop-color="#D91F3A"/>
    </linearGradient>
    <clipPath id="clip0_47:438">
      <path fill="#fff" d="M0 0h67.046v67.046H0z" transform="translate(17.172 16.162)"/>
    </clipPath>
    <filter id="filter0_i_47:438" width="67.045" height="68.045" x="17.172" y="15.162" color-interpolation-filters="sRGB" filterUnits="userSpaceOnUse">
      <feFlood flood-opacity="0" result="BackgroundImageFix"/>
      <feBlend in="SourceGraphic" in2="BackgroundImageFix" result="shape"/>
      <feColorMatrix in="SourceAlpha" result="hardAlpha" values="0 0 0 0 0 0 0 0 0 0 0 0 0 0 0 0 0 0 127 0"/>
      <feOffset dy="-1"/>
      <feGaussianBlur stdDeviation="1"/>
      <feComposite in2="hardAlpha" k2="-1" k3="1" operator="arithmetic"/>
      <feColorMatrix values="0 0 0 0 0.921365 0 0 0 0 0.460683 0 0 0 0 0 0 0 0 0.35 0"/>
      <feBlend in2="shape" result="effect1_innerShadow_47:438"/>
    </filter>
  </defs>
</svg>
