<svg xmlns="http://www.w3.org/2000/svg" width="100" height="100" fill="none" viewBox="0 0 100 100">
  <path fill="url(#paint0_linear_58:542)" fill-opacity=".5" d="M0 50C0 22.386 22.386 0 50 0s50 22.386 50 50-22.386 50-50 50S0 77.614 0 50z"/>
  <g clip-path="url(#clip0_58:542)">
    <path fill="url(#paint1_linear_58:542)" d="M84.217 49.684a33.523 33.523 0 11-67.046 0 33.523 33.523 0 0167.046 0"/>
    <g filter="url(#filter0_i_58:542)">
      <path fill="url(#paint2_linear_58:542)" d="M84.217 49.684a33.523 33.523 0 11-67.046 0 33.523 33.523 0 0167.046 0"/>
    </g>
    <path fill="url(#paint3_linear_58:542)" d="M39.519 69.651c0 .574.394.985 1.047.985 1.471 0 3.503-2.619 10.128-2.619s8.662 2.62 10.128 2.62c.654 0 1.048-.412 1.048-.986 0-1.663-3.516-7.396-11.176-7.396S39.52 67.988 39.52 69.651z"/>
    <path fill="url(#paint4_linear_58:542)" d="M32.253 53.037c0-3.395 2.132-6.143 4.751-6.143 2.628 0 4.752 2.748 4.752 6.143 0 1.416-.373 2.723-.997 3.763-.28.468-.733.807-1.261.942a9.995 9.995 0 01-2.494.323c-1.018 0-1.898-.168-2.493-.323a2.053 2.053 0 01-1.257-.942 7.295 7.295 0 01-1.001-3.763zm27.38 0c0-3.395 2.128-6.143 4.747-6.143 2.627 0 4.752 2.748 4.752 6.143 0 1.416-.373 2.723-.998 3.763a2.053 2.053 0 01-1.26.942 9.937 9.937 0 01-4.983 0 2.057 2.057 0 01-1.261-.942 7.29 7.29 0 01-.998-3.763z"/>
    <g filter="url(#filter1_i_58:542)">
      <path fill="url(#paint5_linear_58:542)" d="M32.253 53.037c0-3.395 2.132-6.143 4.751-6.143 2.628 0 4.752 2.748 4.752 6.143 0 1.416-.373 2.723-.997 3.763-.28.468-.733.807-1.261.942a9.995 9.995 0 01-2.494.323c-1.018 0-1.898-.168-2.493-.323a2.053 2.053 0 01-1.257-.942 7.295 7.295 0 01-1.001-3.763zm27.38 0c0-3.395 2.128-6.143 4.747-6.143 2.627 0 4.752 2.748 4.752 6.143 0 1.416-.373 2.723-.998 3.763a2.053 2.053 0 01-1.26.942 9.937 9.937 0 01-4.983 0 2.057 2.057 0 01-1.261-.942 7.29 7.29 0 01-.998-3.763z"/>
    </g>
    <path fill="#4E506A" d="M36.514 49.626c.536.523.57 1.559.071 2.309-.503.745-1.34.93-1.877.402-.536-.524-.566-1.559-.071-2.305.503-.75 1.34-.93 1.877-.406zm27.191 0c.537.523.57 1.559.076 2.309-.503.745-1.341.93-1.886.402-.532-.524-.562-1.559-.063-2.305.499-.75 1.337-.93 1.873-.406z"/>
    <path fill="url(#paint6_linear_58:542)" d="M34.59 37.755c1.392-.642 2.498-.918 3.357-.918 1.161 0 1.89.498 2.305 1.282.733 1.379.402 1.68-.83 1.923-4.634.939-9.29 3.948-11.31 5.825-1.26 1.173-2.468-.126-1.826-1.148.645-1.023 3.243-4.63 8.305-6.965zm26.547.364c.414-.784 1.144-1.282 2.304-1.282.864 0 1.966.276 3.357.917 5.062 2.335 7.66 5.942 8.3 6.965.642 1.022-.56 2.321-1.822 1.148-2.024-1.877-6.675-4.886-11.314-5.825-1.232-.243-1.555-.544-.825-1.923z"/>
    <path fill="url(#paint7_linear_58:542)" d="M73.741 83.207c-3.47 0-6.285-3.134-6.285-7.002 0-3.864 1.492-6.474 2.694-8.997 2.506-5.271 3-6 3.591-6 .591 0 1.086.729 3.591 6 1.203 2.523 2.695 5.133 2.695 8.997 0 3.868-2.816 7.002-6.286 7.002z"/>
    <path fill="url(#paint8_linear_58:542)" d="M73.741 73.175c-1.374 0-2.489-1.24-2.489-2.765 0-1.534.591-2.569 1.069-3.57.989-2.087 1.186-2.372 1.42-2.372.235 0 .432.285 1.42 2.372.478 1.005 1.07 2.036 1.07 3.566 0 1.53-1.115 2.77-2.49 2.77"/>
  </g>
  <defs>
    <linearGradient id="paint0_linear_58:542" x1="50" x2="50" y1="10.25" y2="100" gradientUnits="userSpaceOnUse">
      <stop stop-color="#FEEA70"/>
      <stop offset="1" stop-color="#F69B30"/>
    </linearGradient>
    <linearGradient id="paint1_linear_58:542" x1="50.694" x2="50.694" y1="23.034" y2="83.207" gradientUnits="userSpaceOnUse">
      <stop stop-color="#FEEA70"/>
      <stop offset="1" stop-color="#F69B30"/>
    </linearGradient>
    <linearGradient id="paint2_linear_58:542" x1="50.694" x2="50.694" y1="23.034" y2="83.207" gradientUnits="userSpaceOnUse">
      <stop stop-color="#FEEA70"/>
      <stop offset="1" stop-color="#F69B30"/>
    </linearGradient>
    <linearGradient id="paint3_linear_58:542" x1="50.694" x2="50.694" y1="62.255" y2="70.636" gradientUnits="userSpaceOnUse">
      <stop stop-color="#472315"/>
      <stop offset="1" stop-color="#8B3A0E"/>
    </linearGradient>
    <linearGradient id="paint4_linear_58:542" x1="50.692" x2="50.692" y1="46.894" y2="58.065" gradientUnits="userSpaceOnUse">
      <stop stop-color="#191A33"/>
      <stop offset=".872" stop-color="#3B426A"/>
    </linearGradient>
    <linearGradient id="paint5_linear_58:542" x1="50.692" x2="50.692" y1="48.039" y2="58.065" gradientUnits="userSpaceOnUse">
      <stop stop-color="#FEEA70"/>
      <stop offset="1" stop-color="#F69B30"/>
    </linearGradient>
    <linearGradient id="paint6_linear_58:542" x1="50.692" x2="50.692" y1="36.837" y2="46.331" gradientUnits="userSpaceOnUse">
      <stop stop-color="#E78E0D"/>
      <stop offset="1" stop-color="#CB6000"/>
    </linearGradient>
    <linearGradient id="paint7_linear_58:542" x1="73.741" x2="73.741" y1="79.225" y2="65.154" gradientUnits="userSpaceOnUse">
      <stop stop-color="#35CAFC"/>
      <stop offset="1" stop-color="#007EDB"/>
    </linearGradient>
    <linearGradient id="paint8_linear_58:542" x1="73.741" x2="73.741" y1="64.468" y2="73.175" gradientUnits="userSpaceOnUse">
      <stop stop-color="#6AE1FF" stop-opacity=".287"/>
      <stop offset="1" stop-color="#A8E3FF" stop-opacity=".799"/>
    </linearGradient>
    <filter id="filter0_i_58:542" width="67.045" height="68.045" x="17.172" y="15.162" color-interpolation-filters="sRGB" filterUnits="userSpaceOnUse">
      <feFlood flood-opacity="0" result="BackgroundImageFix"/>
      <feBlend in="SourceGraphic" in2="BackgroundImageFix" result="shape"/>
      <feColorMatrix in="SourceAlpha" result="hardAlpha" values="0 0 0 0 0 0 0 0 0 0 0 0 0 0 0 0 0 0 127 0"/>
      <feOffset dy="-1"/>
      <feGaussianBlur stdDeviation="1"/>
      <feComposite in2="hardAlpha" k2="-1" k3="1" operator="arithmetic"/>
      <feColorMatrix values="0 0 0 0 0.921365 0 0 0 0 0.460683 0 0 0 0 0 0 0 0 0.35 0"/>
      <feBlend in2="shape" result="effect1_innerShadow_58:542"/>
    </filter>
    <filter id="filter1_i_58:542" width="36.88" height="11.171" x="32.252" y="46.894" color-interpolation-filters="sRGB" filterUnits="userSpaceOnUse">
      <feFlood flood-opacity="0" result="BackgroundImageFix"/>
      <feBlend in="SourceGraphic" in2="BackgroundImageFix" result="shape"/>
      <feColorMatrix in="SourceAlpha" result="hardAlpha" values="0 0 0 0 0 0 0 0 0 0 0 0 0 0 0 0 0 0 127 0"/>
      <feOffset/>
      <feGaussianBlur stdDeviation=".5"/>
      <feComposite in2="hardAlpha" k2="-1" k3="1" operator="arithmetic"/>
      <feColorMatrix values="0 0 0 0 0.0411227 0 0 0 0 0.0430885 0 0 0 0 0.0922353 0 0 0 0.819684 0"/>
      <feBlend in2="shape" result="effect1_innerShadow_58:542"/>
    </filter>
    <clipPath id="clip0_58:542">
      <path fill="#fff" d="M0 0h67.046v67.046H0z" transform="translate(17.172 16.162)"/>
    </clipPath>
  </defs>
</svg>
